<?xml version="1.0" standalone="no"?><!DOCTYPE svg PUBLIC "-//W3C//DTD SVG 1.1//EN" "http://www.w3.org/Graphics/SVG/1.1/DTD/svg11.dtd"><svg t="1525938789910" class="icon" style="" viewBox="0 0 1024 1024" version="1.1" xmlns="http://www.w3.org/2000/svg" p-id="3188" xmlns:xlink="http://www.w3.org/1999/xlink" width="32" height="32"><defs><style type="text/css"></style></defs><path d="M686.542061 512 1017.706929 180.792467c8.362318-8.362318 8.362318-21.844423 0-30.206741l-144.313987-144.313987c-8.362318-8.362318-21.844423-8.362318-30.206741 0L512 337.479272 180.813799 6.271739c-8.362318-8.362318-21.844423-8.362318-30.206741 0L6.293071 150.585726c-8.362318 8.362318-8.362318 21.844423 0 30.206741L338.140577 512.639973 34.515895 843.868839c-7.76501 8.447648-7.445023 21.460439 0.639973 29.545436l144.292654 144.313987c4.117162 4.095829 9.919587 6.037082 15.572684 6.271739 5.823757-0.127995 11.327528-2.623891 15.27403-6.933044l302.366068-329.863589 330.546227 330.524895C847.36736 1021.888088 852.828465 1023.978668 858.310904 1023.978668c5.461106 0 10.922212-2.09058 15.082038-6.271739l144.313987-144.313987c8.362318-8.362318 8.362318-21.844423 0-30.206741L686.542061 512zM858.310904 972.396817 527.103371 641.210616c-3.989167-4.0105-9.42894-6.250406-15.103371-6.250406-0.149327 0-0.319987 0-0.447981 0-5.84509 0.17066-11.34886 2.623891-15.295363 6.933044L193.869255 971.735511l-114.043248-114.064581 303.60335-331.228865c7.76501-8.447648 7.445023-21.481772-0.639973-29.545436L51.603183 165.689096l114.107246-114.085913 331.186201 331.207533c8.362318 8.362318 21.844423 8.362318 30.206741 0L858.310904 51.603183l114.085913 114.085913L641.210616 496.896629c-8.362318 8.362318-8.362318 21.844423 0 30.206741l331.186201 331.207533L858.310904 972.396817z" p-id="3189" fill="#13227a"></path></svg>