<?xml version="1.0" standalone="no"?><!DOCTYPE svg PUBLIC "-//W3C//DTD SVG 1.1//EN" "http://www.w3.org/Graphics/SVG/1.1/DTD/svg11.dtd"><svg t="1525859185670" class="icon" style="" viewBox="0 0 1024 1024" version="1.1" xmlns="http://www.w3.org/2000/svg" p-id="3098" xmlns:xlink="http://www.w3.org/1999/xlink" width="20" height="20"><defs><style type="text/css"></style></defs><path d="M870.891618 1023.974386H51.228919a51.228919 51.228919 0 0 1-51.228919-51.228919v-819.6627a51.228919 51.228919 0 0 1 51.228919-51.228919h461.060268v102.457838H102.457837v717.204862h717.204863v-409.83135h102.457837v461.060269a51.228919 51.228919 0 0 1-51.228919 51.228919zM476.070342 547.904044a51.228919 51.228919 0 0 1 0-72.437691l461.060268-461.060269a51.228919 51.228919 0 0 1 72.437691 72.437691l-461.060268 461.060269a51.228919 51.228919 0 0 1-72.437691 0z" fill="#8a8a8a" p-id="3099"></path></svg>